HIERARCHY
ROOT SpineBase
{
  OFFSET 0.000000 0.000000 0.000000
  CHANNELS 6 Xposition Yposition Zposition Zrotation Xrotation Yrotation
  JOINT SpineMid
  {
    OFFSET -0.000000 33.053106 -0.000000
    CHANNELS 3 Zrotation Xrotation Yrotation
    JOINT SpineShoulder
    {
      OFFSET -0.089630 24.729976 -0.874083
      CHANNELS 3 Zrotation Xrotation Yrotation
      JOINT Neck
      {
        OFFSET -0.036865 8.235093 -0.619737
        CHANNELS 3 Zrotation Xrotation Yrotation
        JOINT Head
        {
          OFFSET 4.619573 11.187032 3.932721
          CHANNELS 3 Zrotation Xrotation Yrotation
          End Site
          {
            OFFSET 0 0 0
          }
        }
      }
      JOINT ShoulderLeft
      {
        OFFSET -1.343274 -4.609292 -13.383839
        CHANNELS 3 Zrotation Xrotation Yrotation
        JOINT ElbowLeft
        {
          OFFSET 5.606915 -26.223724 -3.208707
          CHANNELS 3 Zrotation Xrotation Yrotation
          JOINT WristLeft
          {
            OFFSET 7.650977 -21.437417 7.514430
            CHANNELS 3 Zrotation Xrotation Yrotation
            JOINT HandLeft
            {
              OFFSET -1.765104 -9.672001 3.560535
              CHANNELS 3 Zrotation Xrotation Yrotation
              JOINT HandTipLeft
              {
                OFFSET 1.473770 -5.548897 1.402218
                CHANNELS 3 Zrotation Xrotation Yrotation
                End Site
                {
                  OFFSET 0 0 0
                }
              }
              JOINT ThumbLeft
              {
                OFFSET -4.759596 -2.977945 -5.448296
                CHANNELS 3 Zrotation Xrotation Yrotation
                End Site
                {
                  OFFSET 0 0 0
                }
              }
            }
          }
        }
      }
      JOINT ShoulderRight
      {
        OFFSET 6.153512 -6.116505 -15.574524
        CHANNELS 3 Zrotation Xrotation Yrotation
        JOINT ElbowRight
        {
          OFFSET 0.246257 -32.004513 1.204009
          CHANNELS 3 Zrotation Xrotation Yrotation
          JOINT WristRight
          {
            OFFSET 4.598466 -27.739511 7.735071
            CHANNELS 3 Zrotation Xrotation Yrotation
            JOINT HandRight
            {
              OFFSET -1.675719 -6.232058 0.296704
              CHANNELS 3 Zrotation Xrotation Yrotation
              JOINT HandTipRight
              {
                OFFSET 2.517834 -5.494655 1.114700
                CHANNELS 3 Zrotation Xrotation Yrotation
                End Site
                {
                  OFFSET 0 0 0
                }
              }
              JOINT ThumbRight
              {
                OFFSET 2.754116 6.271209 1.059723
                CHANNELS 3 Zrotation Xrotation Yrotation
                End Site
                {
                  OFFSET 0 0 0
                }
              }
            }
          }
        }
      }
    }
  }
  JOINT HipLeft
  {
    OFFSET -5.939106 1.599931 -8.114466
    CHANNELS 3 Zrotation Xrotation Yrotation
    JOINT KneeLeft
    {
      OFFSET -0.424103 -34.025023 -0.273488
      CHANNELS 3 Zrotation Xrotation Yrotation
      JOINT AnkleLeft
      {
        OFFSET -9.803600 -32.346112 -2.977215
        CHANNELS 3 Zrotation Xrotation Yrotation
        JOINT FootLeft
        {
          OFFSET 3.649380 -7.653822 -2.217918
          CHANNELS 3 Zrotation Xrotation Yrotation
          End Site
          {
            OFFSET 0 0 0
          }
        }
      }
    }
  }
  JOINT HipRight
  {
    OFFSET 5.662605 0.643414 1.227218
    CHANNELS 3 Zrotation Xrotation Yrotation
    JOINT KneeRight
    {
      OFFSET -20.275719 -31.566774 10.469459
      CHANNELS 3 Zrotation Xrotation Yrotation
      JOINT AnkleRight
      {
        OFFSET 26.543877 2.786951 -16.596932
        CHANNELS 3 Zrotation Xrotation Yrotation
        JOINT FootRight
        {
          OFFSET -7.450660 -10.073585 -4.812570
          CHANNELS 3 Zrotation Xrotation Yrotation
          End Site
          {
            OFFSET 0 0 0
          }
        }
      }
    }
  }
}
MOTION
Frames: 13
Frame Time: 0.033333
11.889825 72.729520 342.775007 0.000000 -0.000000 -38.840976 -0.000000 0.000000 38.840976 -0.000000 0.000000 0.000000 -0.000000 0.000000 0.000000 0.000000 0.000000 0.000000 -0.000000 0.000000 0.000000 -0.000000 0.000000 0.000000 -0.000000 0.000000 0.000000 -0.000000 0.000000 0.000000 0.000000 0.000000 0.000000 0.000000 0.000000 0.000000 -0.000000 0.000000 0.000000 -0.000000 0.000000 0.000000 -0.000000 0.000000 0.000000 -0.000000 0.000000 0.000000 0.000000 0.000000 0.000000 0.000000 0.000000 0.000000 -0.000000 0.000000 38.840976 -0.000000 0.000000 0.000000 -0.000000 0.000000 0.000000 0.000000 0.000000 0.000000 -0.000000 0.000000 38.840976 -0.000000 0.000000 0.000000 -0.000000 0.000000 0.000000 0.000000 0.000000 0.000000
11.792536 72.430459 342.665063 -0.106704 0.071004 -37.972913 0.127803 0.009681 37.972968 -0.000000 0.000000 0.000000 -0.000000 0.000000 0.000000 0.000000 0.000000 0.000000 -0.000000 0.000000 0.000000 -0.115431 0.804508 0.248180 -1.625386 -2.373195 -0.641052 3.152222 -0.106163 0.212513 0.000000 0.000000 0.000000 0.000000 0.000000 0.000000 -0.000000 0.000000 0.000000 -0.000000 0.000000 0.000000 -0.320802 1.926691 -0.528011 -1.086126 -4.308910 -0.920860 0.000000 0.000000 0.000000 0.000000 0.000000 0.000000 0.127803 0.009681 37.972968 -0.000000 0.000000 0.000000 -0.000000 0.000000 0.000000 0.000000 0.000000 0.000000 0.127803 0.009681 37.972968 -1.522571 -0.924304 -0.235403 1.083568 2.069969 -0.411362 0.000000 0.000000 0.000000
11.698172 72.158645 342.568786 -0.205334 0.129852 -37.176159 0.242071 0.020614 37.176348 -0.000000 0.000000 0.000000 -0.541608 -0.926944 0.569303 0.000000 0.000000 0.000000 -0.000000 0.000000 0.000000 -0.187505 1.432435 0.450111 -3.304388 -4.428276 -1.330548 5.790471 0.333296 0.407651 0.000000 0.000000 0.000000 0.000000 0.000000 0.000000 -0.000000 0.000000 0.000000 -0.000000 0.000000 0.000000 -0.590590 3.559105 -0.967141 -1.735189 -7.911477 -1.716759 0.000000 0.000000 0.000000 0.000000 0.000000 0.000000 0.242071 0.020614 37.176348 -0.000000 0.000000 0.000000 -0.000000 0.000000 0.000000 0.000000 0.000000 0.000000 1.423885 0.272966 37.868988 -4.034249 -1.207578 -1.133818 2.098962 3.903703 -0.749270 0.000000 0.000000 0.000000
11.606732 71.914079 342.486177 -0.296250 0.176886 -36.454898 0.343385 0.033756 36.455254 -0.000000 0.000000 0.000000 -0.671278 -1.282964 0.759420 0.000000 0.000000 0.000000 -0.000000 0.000000 0.000000 -0.214290 1.882660 0.604263 -4.928431 -6.056389 -2.018328 8.035219 0.920957 0.582352 0.000000 0.000000 0.000000 0.000000 0.000000 0.000000 -0.000000 0.000000 0.000000 -0.000000 0.000000 0.000000 -0.816379 4.895366 -1.321171 -2.011516 -10.890751 -2.361754 0.000000 0.000000 0.000000 0.000000 0.000000 0.000000 0.343385 0.033756 36.455254 -0.000000 0.000000 0.000000 -0.615750 -0.642485 -0.131915 0.000000 0.000000 0.000000 2.005627 0.310436 37.445871 -5.684896 -1.641668 -1.616064 2.992530 5.469153 -1.023042 0.000000 0.000000 0.000000
11.518215 71.696760 342.417236 -0.379772 0.212393 -35.813001 0.432248 0.049988 35.813517 -0.000000 0.000000 0.000000 -0.706519 -1.564311 0.886716 0.000000 0.000000 0.000000 -0.855931 0.041830 0.114166 0.665676 2.111562 0.595947 -6.365533 -7.149129 -2.635542 9.879352 1.401522 0.753059 0.000000 0.000000 0.000000 0.000000 0.000000 0.000000 -0.000000 0.000000 0.000000 -0.000000 0.000000 0.000000 -1.003874 5.935009 -1.593105 -1.953884 -13.311250 -2.843640 0.000000 0.000000 0.000000 0.000000 0.000000 0.000000 0.432248 0.049988 35.813517 -0.000000 0.000000 0.000000 -0.631198 -0.802968 -0.205335 0.000000 0.000000 0.000000 2.497938 0.288117 37.070742 -7.016773 -1.934232 -2.024350 3.713951 6.736192 -1.239155 0.000000 0.000000 0.000000
11.432622 71.506688 342.361963 -0.456181 0.236599 -35.254045 0.509082 0.070106 35.254676 -0.000000 0.000000 0.000000 -0.647274 -1.769499 0.951230 0.000000 0.000000 0.000000 -0.980120 0.004476 0.121146 0.857615 2.242338 0.644930 -7.480169 -7.616079 -3.106860 11.267942 1.597071 0.942651 0.000000 0.000000 0.000000 0.000000 0.000000 0.000000 -0.000000 0.000000 0.000000 -0.000000 0.000000 0.000000 -1.157456 6.677739 -1.785137 -1.582488 -15.221098 -3.157915 0.000000 0.000000 0.000000 0.000000 0.000000 0.000000 0.762117 0.915382 35.240133 -0.694417 -0.544345 0.009068 -0.551100 -0.936462 -0.292689 0.000000 0.000000 0.000000 2.899447 0.210211 36.747458 -7.982111 -2.068861 -2.347759 4.220215 7.679218 -1.401641 0.000000 0.000000 0.000000
11.251342 71.267423 342.287257 -0.642446 0.293345 -34.463452 0.695683 0.121697 34.464358 -0.000000 0.000000 0.000000 -0.392790 -1.830606 0.891530 0.000000 0.000000 0.000000 -1.087756 -0.088596 0.113558 1.117614 2.251127 0.670875 -8.560463 -7.886368 -3.480933 12.350479 2.435602 1.211650 0.000000 0.000000 0.000000 0.000000 0.000000 0.000000 -0.000000 0.000000 0.000000 -0.000000 0.000000 0.000000 -1.492276 6.916563 -1.841591 -0.199042 -16.388525 -3.104234 0.000000 0.000000 0.000000 0.000000 0.000000 0.000000 1.116973 1.237753 34.442992 -0.978713 -0.682056 0.010542 -0.184459 -1.053192 -0.451972 0.000000 0.000000 0.000000 3.541721 0.175509 36.267369 -8.981335 -2.053854 -2.848162 4.421742 8.610360 -1.367680 0.000000 0.000000 0.000000
11.178975 71.089823 342.270349 -0.694755 0.286915 -34.108549 0.736128 0.152043 34.109312 -0.000000 0.000000 0.000000 -0.176065 -1.869424 0.835297 0.000000 0.000000 0.000000 -1.153810 -0.211737 0.094004 1.303065 2.083084 0.622351 -8.811546 -6.511733 -3.569330 13.342963 1.010156 1.671126 0.000000 0.000000 0.000000 0.000000 0.000000 0.000000 -0.000000 0.000000 0.000000 -0.000000 0.000000 0.000000 -1.394936 6.754184 -1.801330 0.631533 -16.043130 -2.693976 0.000000 0.000000 0.000000 0.000000 0.000000 0.000000 1.156243 1.431503 34.084673 -1.065062 -0.824133 0.011173 0.331343 -1.320281 -0.723151 0.000000 0.000000 0.000000 3.726590 -0.044856 36.088890 -8.714365 -1.614881 -2.967973 3.993214 8.520145 -1.301869 0.000000 0.000000 0.000000
11.166846 71.008251 342.277528 -0.675523 0.239923 -33.893467 0.694527 0.177558 33.893805 -0.000000 0.000000 0.000000 0.137452 -1.818167 0.709015 0.000000 0.000000 0.000000 -1.183337 -0.284457 0.081243 1.438465 1.618282 0.475911 -7.985418 -3.593313 -3.258131 13.051556 -1.599462 2.280615 0.000000 0.000000 0.000000 0.000000 0.000000 0.000000 -0.000000 0.000000 0.000000 -0.000000 0.000000 0.000000 -1.282728 6.712527 -1.792285 3.233248 -20.388000 -3.562469 0.000000 0.000000 0.000000 0.000000 0.000000 0.000000 0.990318 1.592141 33.868341 -1.034052 -1.009633 0.011785 0.505682 -1.228429 -0.727579 0.000000 0.000000 0.000000 3.553993 -0.224895 35.859479 -8.552291 -1.542590 -3.096301 4.083164 8.559272 -1.194532 0.000000 0.000000 0.000000
11.257967 70.973427 342.326632 -0.525133 0.153032 -34.398810 0.519756 0.170405 34.398738 -0.000000 0.000000 0.000000 0.578240 -1.752989 0.533481 0.000000 0.000000 0.000000 -1.261698 -0.410588 0.062251 1.244448 1.627357 0.358714 -4.223644 -3.505917 -1.714508 9.183467 1.506302 1.841964 0.000000 0.000000 0.000000 0.000000 0.000000 0.000000 -0.000000 0.000000 0.000000 -0.000000 0.000000 0.000000 -0.567783 6.254100 -1.681343 -1.930955 -16.729843 -4.124431 0.000000 0.000000 0.000000 0.000000 0.000000 0.000000 0.613454 1.510707 34.377530 -0.834226 -1.053249 0.012166 0.671251 -1.283872 -0.799527 0.000000 0.000000 0.000000 3.121392 -0.328530 36.238663 -7.829155 -1.383740 -2.878481 3.732047 8.248659 -1.269970 0.000000 0.000000 0.000000
11.437500 71.036609 342.330328 -0.261183 0.135219 -35.003256 0.291504 0.039061 35.003465 -0.000000 0.000000 0.000000 0.855052 -1.787804 0.454959 0.000000 0.000000 0.000000 -1.653502 -0.404991 0.110287 2.302967 0.911673 0.279955 -4.187714 -1.244039 -1.617500 8.505287 -1.121728 1.833471 0.000000 0.000000 0.000000 0.000000 0.000000 0.000000 -0.826069 0.387338 -0.025309 0.826259 -0.386933 0.030892 0.844049 6.547952 -1.778902 -6.086614 -14.274127 -3.935860 0.000000 0.000000 0.000000 0.000000 0.000000 0.000000 0.254524 1.099195 34.988099 -0.577635 -0.889729 0.011248 0.642060 -1.251353 -0.776092 0.000000 0.000000 0.000000 2.586080 -0.794918 36.771237 -7.328367 -1.338297 -2.413228 3.827370 8.196845 -1.644747 0.000000 0.000000 0.000000
11.560574 71.022058 342.204286 -0.043902 0.220804 -36.651481 0.167030 -0.150939 36.651785 -0.000000 0.000000 0.000000 0.965497 -1.752945 0.402833 0.000000 0.000000 0.000000 -1.095776 -0.410083 0.042586 2.485301 0.367517 0.410647 -7.593969 2.820165 -3.101321 12.479806 -5.372125 3.954661 0.000000 0.000000 0.000000 0.000000 0.000000 0.000000 -1.950104 1.269540 -0.042016 1.951511 -1.267374 0.085211 2.953565 4.894331 -1.314155 -7.213097 -9.750973 -2.585919 0.000000 0.000000 0.000000 0.000000 0.000000 0.000000 0.167030 -0.150939 36.651785 -0.000000 0.000000 0.000000 0.406904 -1.256730 -0.713740 0.000000 0.000000 0.000000 0.665218 -2.579533 37.744426 -5.172643 -0.994467 -4.121107 4.694008 8.637110 -0.098937 0.000000 0.000000 0.000000
11.748776 71.236863 342.129713 0.212824 0.231524 -37.061959 -0.030297 -0.313016 37.061446 -0.000000 0.000000 0.000000 0.993532 -1.708958 0.374594 0.000000 0.000000 0.000000 -0.000000 0.000000 0.000000 2.512302 -1.153079 0.488960 -12.391899 7.201106 -4.473696 15.940939 -5.718624 6.823909 0.000000 0.000000 0.000000 0.000000 0.000000 0.000000 -2.235554 1.165197 -0.052439 2.831255 0.106988 0.480730 0.608324 2.032662 -1.227877 -8.197204 -4.418244 -1.627846 0.000000 0.000000 0.000000 0.000000 0.000000 0.000000 -0.030297 -0.313016 37.061446 -0.000000 0.000000 0.000000 0.185965 -1.376885 -0.710106 0.000000 0.000000 0.000000 0.100340 -2.033824 37.681499 -3.412930 -0.878410 -2.827303 3.718101 6.288304 -0.396761 0.000000 0.000000 0.000000
